<?xml version="1.0" encoding="utf-8"?><svg width="89" height="63" viewBox="0 0 89 63" xmlns="http://www.w3.org/2000/svg" xmlns:xlink="http://www.w3.org/1999/xlink"><view id="image-faq" viewBox="68 17 16 17"/><svg width="16" height="17" fill="none" viewBox="-1 -1 16 17" x="68" y="17" xmlns="http://www.w3.org/2000/svg"><g clip-path="url(#aclip0_301_107)"><path d="M6.91.499A7.002 7.002 0 000 7.589c.05 3.86 3.23 6.96 7.09 6.9 3.86-.05 6.96-3.23 6.91-7.09-.05-3.86-3.23-6.95-7.09-6.9zm-.02 11.26h-.04c-.6-.02-1.01-.46-1-1.04.02-.58.45-1 1.02-1h.03c.61.02 1.03.45 1.01 1.06-.01.58-.43.98-1.02.98zm2.5-4.97c-.14.2-.45.45-.84.75l-.42.29c-.24.19-.38.36-.43.53-.04.13-.06.16-.07.43v.07H6v-.14c.02-.57.03-.9.27-1.18.37-.43 1.18-.96 1.22-.98.12-.09.21-.19.29-.29.17-.24.25-.42.25-.6 0-.25-.08-.49-.22-.7-.15-.2-.42-.3-.81-.3-.39 0-.66.12-.82.38-.16.26-.25.53-.25.81v.07H4.25v-.07c.04-1.03.41-1.77 1.09-2.2.43-.28.96-.42 1.58-.42.81 0 1.5.2 2.04.59.56.39.84.98.84 1.76a2 2 0 01-.41 1.2z" fill="currentColor"/></g><defs><clipPath id="aclip0_301_107"><path fill="#fff" transform="translate(0 .498)" d="M0 0h14v14H0z"/></clipPath></defs></svg><view id="image-logo" viewBox="0 0 68 63"/><svg width="68" height="63" fill="none" viewBox="-1 -1 68 63" xmlns="http://www.w3.org/2000/svg"><g clip-path="url(#bclip0_322_676)"><mask id="ba" style="mask-type:luminance" maskUnits="userSpaceOnUse" x="0" y="1" width="66" height="60"><path d="M65.334 1.58H0v58.833h65.334V1.581z" fill="#fff"/></mask><g mask="url(#ba)" fill-rule="evenodd" clip-rule="evenodd"><path d="M25.348 45.82L46.81 24.902c1.8-1.755 4.596-1.755 6.301 0l7.297 7.112c1.8 1.755 1.8 4.48 0 6.142L38.944 59.166c-1.8 1.755-4.595 1.755-6.3 0l-7.297-7.111c-1.8-1.755-1.8-4.48 0-6.234z" fill="#5426FF"/><path d="M25.348 45.82L46.81 24.902c1.8-1.755 4.596-1.755 6.301 0l7.297 7.112c1.8 1.755 1.8 4.48 0 6.142L38.944 59.166c-1.8 1.755-4.595 1.755-6.3 0l-7.297-7.111c-1.8-1.755-1.8-4.48 0-6.234z" fill="#5426FF"/><path opacity=".5" d="M50.363 39.217c1.8-1.755 1.8-4.48 0-6.142l-5.97-5.818L25.349 45.82c-1.8 1.755-1.8 4.48 0 6.142l5.97 5.818 19.045-18.564z" fill="#4911D4"/><path d="M3.507 22.962L24.069 2.827c1.8-1.754 4.596-1.754 6.301 0l7.296 7.112c1.8 1.755 1.8 4.48 0 6.142l-20.61 20.088c-1.8 1.755-4.595 1.755-6.3 0l-7.25-7.065a4.167 4.167 0 010-6.142z" fill="#5426FF"/><path opacity=".5" d="M37.714 16.174c1.8-1.755 1.8-4.48 0-6.142l-5.496-5.357-18.762 18.287c-1.8 1.755-1.8 4.48 0 6.142l5.496 5.31 18.762-18.24z" fill="#4911D4"/><path d="M63.44 19.637l-5.686.97c-.995.184-1.895-.093-2.606-.785L43.256 8.23c-2.605-2.54-6.964-2.54-9.57 0L.19 40.833c-.521.508-.095 1.155.616 1.062l6.206-.97c.9-.092 1.8.093 2.417.786l11.75 11.452c2.984 2.91 6.869 2.725 9.854-.277L64.055 20.7c.474-.462 0-1.247-.616-1.062zm-19.236 6.419l-15.256 14.87c-1.516 1.477-3.98 1.477-5.496 0l-3.269-3.187c-.52-.508-.616-1.339 0-1.94l15.54-15.146c1.28-1.247 3.506-1.247 4.785 0l3.696 3.602c.474.462.474 1.339 0 1.8z" fill="#CD40A7"/><path d="M46.477 37.832l-2.51-2.725-9.997.878-5.07 4.941c-1.516 1.478-3.98 1.478-5.496 0l5.117 4.987c2.985 2.91 6.87 2.725 9.855-.277l8.101-7.804z" fill="url(#bpaint0_linear_322_676)"/><path d="M25.915 15.758l-10.044 9.836c3.601 2.448 7.58 5.172 7.58 5.172s.19.508.522 1.155l11.75-11.453c1.279-1.247 3.505-1.247 4.785 0l-4.88-4.803c-2.7-2.54-7.012-2.54-9.713.093z" fill="url(#bpaint1_linear_322_676)"/></g></g><defs><linearGradient id="bpaint0_linear_322_676" x1="10.915" y1="53.617" x2="37.558" y2="39.471" gradientUnits="userSpaceOnUse"><stop stop-color="#6311DD"/><stop offset="1" stop-color="#6311DD" stop-opacity="0"/></linearGradient><linearGradient id="bpaint1_linear_322_676" x1="50.498" y1=".901" x2="29.39" y2="22.94" gradientUnits="userSpaceOnUse"><stop stop-color="#6311DD"/><stop offset="1" stop-color="#6311DD" stop-opacity="0"/></linearGradient><clipPath id="bclip0_322_676"><path fill="#fff" d="M0 0h65.55v60.328H0z"/></clipPath></defs></svg><view id="image-mail" viewBox="68 0 21 17"/><svg width="21" height="17" fill="none" viewBox="-1 -1 21 17" x="68" xmlns="http://www.w3.org/2000/svg"><g clip-path="url(#cclip0_301_103)"><path d="M19 12.168c0 .41-.12.79-.31 1.12l-6-6.59 5.93-5.1c.24.35.38.78.38 1.23v9.34zm-9.5-4.28l8.26-7.1a2.41 2.41 0 00-1.14-.29H2.37c-.41 0-.79.11-1.13.29l8.26 7.1zm2.3-.43l-1.91 1.65c-.11.09-.25.14-.39.14s-.28-.05-.39-.14L7.2 7.458l-6.07 6.68c.36.23.78.36 1.24.36h14.25c.46 0 .89-.13 1.25-.36l-6.07-6.68zM.37 1.588c-.23.36-.37.79-.37 1.24v9.33c0 .41.12.79.3 1.12l6-6.6-5.93-5.09z" fill="currentColor"/></g><defs><clipPath id="cclip0_301_103"><path fill="#fff" transform="translate(0 .498)" d="M0 0h19v14H0z"/></clipPath></defs></svg></svg>